<svg xmlns="http://www.w3.org/2000/svg" xmlns:xlink="http://www.w3.org/1999/xlink" width="700" zoomAndPan="magnify" viewBox="0 0 525 525.000007" height="700" preserveAspectRatio="xMidYMid meet" version="1.0"><defs><clipPath id="1423da2cad"><path d="M 82 82 L 443 82 L 443 443 L 82 443 Z M 82 82 " clip-rule="nonzero"/></clipPath><clipPath id="84d5793f77"><path d="M 262.496094 74.859375 L 449.878906 262.238281 L 262.496094 449.617188 L 75.117188 262.238281 Z M 262.496094 74.859375 " clip-rule="nonzero"/></clipPath><clipPath id="c3d0a5e9e9"><path d="M 292.4375 154.707031 L 387 154.707031 L 387 366.554688 L 292.4375 366.554688 Z M 292.4375 154.707031 " clip-rule="nonzero"/></clipPath><clipPath id="44502d7c37"><path d="M 138 146.128906 L 364.667969 146.128906 L 364.667969 378.1875 L 138 378.1875 Z M 138 146.128906 " clip-rule="nonzero"/></clipPath></defs><g clip-path="url(#1423da2cad)"><g clip-path="url(#84d5793f77)"><path fill="#ffffff" d="M 274.6875 87.046875 L 437.6875 250.046875 C 444.417969 256.78125 444.417969 267.695312 437.6875 274.429688 L 274.6875 437.429688 C 267.957031 444.160156 257.039062 444.160156 250.308594 437.429688 L 87.308594 274.429688 C 80.574219 267.695312 80.574219 256.78125 87.308594 250.046875 L 250.308594 87.046875 C 257.039062 80.316406 267.957031 80.316406 274.6875 87.046875 " fill-opacity="1" fill-rule="nonzero"/></g></g><g clip-path="url(#c3d0a5e9e9)"><path fill="#ffd740" d="M 354.007812 339.265625 C 375.265625 319.59375 386.96875 292.171875 386.96875 262.128906 C 386.96875 232.085938 375.265625 204.664062 354.007812 184.992188 C 332.875 165.4375 303.617188 154.707031 271.375 154.707031 C 239.253906 154.707031 209.878906 165.4375 188.742188 184.992188 C 167.488281 204.664062 155.785156 232.085938 155.785156 262.128906 C 155.785156 292.171875 167.488281 319.59375 188.742188 339.265625 C 209.878906 358.820312 239.253906 369.550781 271.375 369.550781 C 303.617188 369.550781 332.875 358.820312 354.007812 339.265625 Z M 271.375 219.566406 C 293.824219 219.566406 308.992188 236.613281 308.992188 262.128906 C 308.992188 287.640625 293.824219 304.691406 271.375 304.691406 C 248.925781 304.691406 233.761719 287.640625 233.761719 262.128906 C 233.761719 236.613281 248.925781 219.566406 271.375 219.566406 Z M 271.375 219.566406 " fill-opacity="1" fill-rule="nonzero"/></g><g clip-path="url(#44502d7c37)"><path fill="#673ab7" d="M 261.488281 378.1875 C 304.082031 378.1875 338.3125 362.863281 360.574219 333.757812 L 364.175781 328.992188 L 310 280.574219 L 305.753906 285.980469 C 293.917969 301.050781 280.917969 308.132812 265.089844 308.132812 C 239.226562 308.132812 222.496094 290.101562 222.496094 262.15625 C 222.496094 234.214844 239.226562 216.183594 265.089844 216.183594 C 281.046875 216.183594 293.917969 223.265625 305.753906 238.335938 L 310 243.742188 L 364.175781 195.324219 L 360.574219 190.558594 C 338.183594 161.453125 303.953125 146.128906 261.488281 146.128906 C 190.070312 146.128906 138.339844 194.9375 138.339844 262.15625 C 138.339844 329.378906 190.070312 378.1875 261.488281 378.1875 Z M 261.488281 378.1875 " fill-opacity="1" fill-rule="nonzero"/></g></svg>