<svg xmlns="http://www.w3.org/2000/svg" xmlns:xlink="http://www.w3.org/1999/xlink" xmlns:fi="http://pattern.flaticon.com/" x="0" y="0" width="700" height="350" viewBox="0 0 700 350"><rect x="0px" y="0px" width="100%" height="100%" opacity="1" fill="#673ab7"/><defs><path d="m263.961 512c188.706 0 215.53-170.501 218.774-175.814l-123.75-37.764c-4.301 9.081-7.124 102.466-96.006 102.466-68.613 0-103.403-49.702-103.403-147.744 0-94.248 35.449-142.031 105.381-142.031 83.037 0 88.405 77.18 90.483 80.845l126.401-29.077c-3.259-4.975-27.575-162.881-211.962-162.881-148.418 0-240.615 100.287-240.615 260.116 0 150.059 94.321 251.884 234.697 251.884z" transform="matrix(-0.05556006853955115 0.09649906997550772 -0.09649906997550772 -0.05556006853955115 285.92705356303003 238.51966468961933)" id="L1_2" fill="#ffffff"/><path d="m140 0h-128a12 12 0 0 0 -12 12v128a12 12 0 0 0 12 12h128a12 12 0 0 0 12-12v-128a12 12 0 0 0 -12-12zm-74.45 96q3.14 5.34 10.77 5.34 6.47 0 9.89-3t3.63-9.67h18.65a28.42 28.42 0 0 1 -4.38 14.34 26.43 26.43 0 0 1 -11.25 9.65 38.3 38.3 0 0 1 -16.54 3.34q-15.32 0-24.15-10t-8.82-28.21v-3.85a47.17 47.17 0 0 1 4-20 30.06 30.06 0 0 1 11.44-13.26 32 32 0 0 1 17.32-4.68q14.16 0 22.76 7.45t9.78 20.55h-18.65c-.14-4.73-1.34-8.14-3.58-10.2s-5.67-3.1-10.26-3.1-8.16 1.74-10.31 5.23-3.32 9.07-3.42 16.73v5.5q0 12.47 3.12 17.84z" transform="matrix(0.3682447704598072 -0.3682447704598072 0.3682447704598072 0.3682447704598072 67.0267959629929 65.0000010728836)" id="L1_4" fill="#ffffff"/><g transform="matrix(0.16122035116386466 0.028284271221359753 -0.028284271221359753 0.16122035116386466 261.9683635347187 71.48681666938255)" id="L1_6"><path d="m237.958 190.978h-30.2v130.047h30.2c38.872 0 64.781-26.512 64.781-65.239 0-38.944-25.909-64.808-64.781-64.808z" fill="#ffffff"/><path d="m256 6c-138.071 0-250 111.929-250 250s111.929 250 250 250 250-111.929 250-250-111.929-250-250-250zm-14.634 381.251h-106.243v-262.5h106.243c79.477 0 135.511 54.331 135.511 131.038 0 76.599-56.251 131.462-135.511 131.462z" fill="#ffffff"/></g><path d="M14.554,0C6.561,0,0,6.562,0,14.552c0,7.996,6.561,14.555,14.554,14.555c7.996,0,14.553-6.559,14.553-14.555     C29.106,6.562,22.55,0,14.554,0z" transform="matrix(2.0613598823547363 0 0 2.0613598823547363 156 168)" id="L1_7" fill="#ffffff"/><path d="m256 512c-68.38 0-132.667-26.629-181.02-74.98-48.351-48.353-74.98-112.64-74.98-181.02s26.629-132.667 74.98-181.02c48.353-48.351 112.64-74.98 181.02-74.98s132.667 26.629 181.02 74.98c48.351 48.353 74.98 112.64 74.98 181.02s-26.629 132.667-74.98 181.02c-48.353 48.351-112.64 74.98-181.02 74.98zm0-422c-91.532 0-166 74.467-166 166s74.468 166 166 166 166-74.467 166-166-74.468-166-166-166z" transform="matrix(0.1519174707059661 0.038669900981480404 -0.038669900981480404 0.1519174707059661 171.00862215053166 71.2096328480137)" id="L1_19" fill="#ffffff"/><g transform="matrix(0.12705825172995075 0.035907766376966424 -0.035907766376966424 0.12705825172995075 256.665475749636 2.2806993646292)" id="L1_21"><path d="M206.848,226.944c1.408-8.32,3.968-15.744,7.68-22.272c3.712-6.528,8.832-11.776,15.104-15.744     c6.016-3.712,13.568-5.76,22.912-5.888c6.144,0.128,11.776,1.152,16.64,3.328c5.248,2.304,9.6,5.376,13.312,9.216     c3.712,3.84,6.528,8.448,8.576,13.568c2.048,5.12,3.2,10.624,3.456,16.384h45.824c-0.384-12.032-2.816-23.04-7.04-33.024     s-10.368-18.56-18.048-25.856c-7.68-7.296-16.896-12.8-27.648-16.768c-10.752-3.968-22.656-6.016-35.712-6.016     c-16.64,0-31.104,2.816-43.392,8.576c-12.288,5.76-22.528,13.568-30.72,23.552c-8.192,9.984-14.336,21.504-18.304,34.688     c-3.968,13.184-5.888,27.136-5.888,41.856v7.04c0,14.848,2.048,28.8,6.016,41.984c3.968,13.184,10.112,24.704,18.304,34.56     c8.192,9.856,18.432,17.664,30.848,23.424s26.88,8.576,43.52,8.576c12.032,0,23.296-1.92,33.792-5.888     c10.496-3.968,19.712-9.344,27.648-16.256c7.936-6.912,14.336-14.848,18.944-24.064c4.608-9.216,7.296-18.944,7.68-29.44h-45.824     c-0.256,5.376-1.536,10.24-3.84,14.848c-2.304,4.608-5.376,8.448-9.216,11.648c-3.84,3.2-8.32,5.76-13.44,7.552     c-4.864,1.664-9.984,2.56-15.488,2.56c-9.216-0.256-16.768-2.176-22.912-6.016c-6.4-4.096-11.52-9.344-15.232-15.872     c-3.712-6.528-6.272-13.952-7.68-22.4s-1.92-16.64-1.92-25.216v-7.04C204.8,243.84,205.44,235.264,206.848,226.944z" fill="#ffffff"/><path d="M256,0C114.56,0,0,114.56,0,256s114.56,256,256,256s256-114.56,256-256S397.44,0,256,0z M256,460.8     c-112.896,0-204.8-91.904-204.8-204.8S143.104,51.2,256,51.2S460.8,143.104,460.8,256S368.896,460.8,256,460.8z" fill="#ffffff"/></g><path d="m256.63 512c147.641 0 239.37-98.471 239.37-255.37 0-157.676-92.197-256.63-240.63-256.63-149.883 0-239.37 97.401-239.37 258.856 0 155.523 92.197 253.144 240.63 253.144zm-114.111-256.322c0-93.223 40.415-144.565 113.804-144.565 72.759 0 112.837 50.889 112.837 143.306 0 93.091-41.133 146.47-112.837 146.47-71.265-.001-113.804-54.288-113.804-145.211z" transform="matrix(0.1538867558402874 0.10829068149549761 -0.10829068149549761 0.1538867558402874 316.3274049677338 141.88257604203903)" id="L1_42" fill="#ffffff"/><path d="m159.988281 318.582031c-3.988281 4.011719-9.429687 6.25-15.082031 6.25s-11.09375-2.238281-15.082031-6.25l-120.449219-120.46875c-12.5-12.5-12.5-32.769531 0-45.246093l15.082031-15.085938c12.503907-12.5 32.75-12.5 45.25 0l75.199219 75.203125 203.199219-203.203125c12.503906-12.5 32.769531-12.5 45.25 0l15.082031 15.085938c12.5 12.5 12.5 32.765624 0 45.246093zm0 0" transform="matrix(0.13201004480316356 0.041488873521958874 -0.041488873521958874 0.13201004480316356 100.0995650732149 113.21698217256838)" id="L1_23" fill="#ffffff"/><path d="m369.164062 174.769531c7.8125 7.8125 7.8125 20.476563 0 28.285157l-134.171874 134.175781c-7.8125 7.808593-20.472657 7.808593-28.285157 0l-63.871093-63.875c-7.8125-7.808594-7.8125-20.472657 0-28.28125 7.808593-7.8125 20.472656-7.8125 28.28125 0l49.730468 49.730469 120.03125-120.035157c7.8125-7.808593 20.476563-7.808593 28.285156 0zm142.835938 81.230469c0 141.503906-114.515625 256-256 256-141.503906 0-256-114.515625-256-256 0-141.503906 114.515625-256 256-256 141.503906 0 256 114.515625 256 256zm-40 0c0-119.394531-96.621094-216-216-216-119.394531 0-216 96.621094-216 216 0 119.394531 96.621094 216 216 216 119.394531 0 216-96.621094 216-216zm0 0" transform="matrix(-0.1171875 0 0 0.1171875 282 155)" id="L1_24" fill="#ffffff"/><path d="m159.988281 318.582031c-3.988281 4.011719-9.429687 6.25-15.082031 6.25s-11.09375-2.238281-15.082031-6.25l-120.449219-120.46875c-12.5-12.5-12.5-32.769531 0-45.246093l15.082031-15.085938c12.503907-12.5 32.75-12.5 45.25 0l75.199219 75.203125 203.199219-203.203125c12.503906-12.5 32.769531-12.5 45.25 0l15.082031 15.085938c12.5 12.5 12.5 32.765624 0 45.246093zm0 0" transform="matrix(-0.10461247851816428 -0.013498384254683976 -0.013498384254683976 0.10461247851816428 230.92730703383458 29.094385330576465)" fill="#ffffff"/><path d="M256,0C115.39,0,0,115.39,0,256s115.39,256,256,256s256-115.39,256-256S396.61,0,256,0z M225.019,372.44L112.914,260.336    l42.422-42.422l71.646,71.646l143.833-130.752l40.371,44.385L225.019,372.44z" transform="matrix(0.1962866336107254 0 0 0.1962866336107254 110.7506217956543 237.7506217956543)" id="L1_25" fill="#ffffff"/><g transform="matrix(0.5303300800017774 0.20468881067773137 -0.20468881067773137 0.5303300800017774 304.2512646042561 267.13856538124094)" id="L1_26"><path d="M87.1,56.72Q91,62.74,91,74.34v3.59q0,11.32-3.9,17.37a12.27,12.27,0,0,1-11,6A12.43,12.43,0,0,1,64.82,95.2Q61,89,61,77.6l0-5.72Q61.89,50.7,76,50.71A12.45,12.45,0,0,1,87.1,56.72Z" fill="#ffffff"/><path d="M140,0H12A12,12,0,0,0,0,12V140a12,12,0,0,0,12,12H140a12,12,0,0,0,12-12V12A12,12,0,0,0,140,0ZM110.06,77.6a45.82,45.82,0,0,1-4.22,20.16,31.27,31.27,0,0,1-12,13.51A33.43,33.43,0,0,1,76.11,116a33.89,33.89,0,0,1-17.65-4.57,31.22,31.22,0,0,1-12-13.08,44.54,44.54,0,0,1-4.51-19.52V74.45a46.25,46.25,0,0,1,4.19-20.19,31.1,31.1,0,0,1,12-13.5A33.66,33.66,0,0,1,76,36a33.31,33.31,0,0,1,17.65,4.71A31.67,31.67,0,0,1,105.71,54.1,44.72,44.72,0,0,1,110.06,74Z" fill="#ffffff"/></g><path d="m325.757 501.179c90.527-29.941 140.391-116.005 140.391-240.502 0-133.506-49.863-223.217-140.42-250.771-50.618-15.205-119.389-7.819-279.58-9.814v512c165.389-2.29 226.628 6.38 279.609-10.913zm-155.683-99.961v-289.93c10.534.26 77.335-1.262 101.045 4.219 48.252 10.811 67.925 52.343 67.925 140.907 0 74.443-10.342 127.68-60.776 140.688-23.448 6.14-76.602 3.42-108.194 4.116z" transform="matrix(-0.015100569956368307 0.09966378310794488 -0.09966378310794488 -0.015100569956368307 215.3819073719306 4.319729399860925)" id="L1_27" fill="#ffffff"/><g transform="matrix(0.14707821936958568 0.11030865766533815 -0.11030865766533815 0.14707821936958568 76.10448457393812 154.95015574126904)" id="L1_28"><path d="m272.923 171.975c-11.708-3.6-26.192-5.42-43.046-5.42h-30.352v178.694h36.027c9.364 0 16.745-.251 21.939-.747a63.107 63.107 0 0 0 15.1-3.487 38.576 38.576 0 0 0 12.661-7.275l.116-.1c17.466-14.77 26.321-41.287 26.321-78.813 0-26.688-3.921-46.688-11.657-59.445-7.559-12.467-16.432-20.124-27.109-23.407z" fill="#ffffff"/><path d="m295.76 345.807a54.479 54.479 0 0 1 -17.809 10.284 79.04 79.04 0 0 1 -18.945 4.339c-5.773.551-13.445.819-23.454.819h-44.027a8 8 0 0 1 -8-8v-194.694a8 8 0 0 1 8-8h38.352c18.448 0 34.512 2.061 47.745 6.126 14.4 4.425 26.54 14.654 36.093 30.4 9.405 15.511 13.976 37.669 13.976 67.742 0 42.416-10.744 73.027-31.931 90.984z" fill="#ffffff"/><path d="m395.4 12h-278.795a104.724 104.724 0 0 0 -104.605 104.605v278.795a104.724 104.724 0 0 0 104.605 104.6h278.795a104.724 104.724 0 0 0 104.6-104.6v-278.795a104.724 104.724 0 0 0 -104.6-104.605zm-13.484 292.025a147.948 147.948 0 0 1 -14.707 40.646 127.965 127.965 0 0 1 -25.666 32.662 108.116 108.116 0 0 1 -27.332 18.021 122.691 122.691 0 0 1 -31.5 9.427 232.975 232.975 0 0 1 -36.788 2.646h-75.723c-12.154 0-21.305-1.939-27.977-5.927a30.13 30.13 0 0 1 -14.065-18.207c-1.845-6.562-2.743-14.662-2.743-24.761v-210.347c0-14.664 3.619-25.718 10.756-32.855s18.194-10.757 32.856-10.757h75.725c20.275 0 38 1.929 52.686 5.734a101.561 101.561 0 0 1 41.612 22.269c31.524 26.984 47.541 68.265 47.541 122.641a237.932 237.932 0 0 1 -4.675 48.808z" fill="#ffffff"/></g><rect x="0px" y="0px" width="60px" height="60px" transform="matrix(0.8720984275296442 -0.6363961064269305 0.6363961064269305 0.8720984275296442 -4.254836018697233 123.92893036691859)" id="L1_30" fill="#ffffff"/><g transform="matrix(0.167612384526192 0.09051069093756942 -0.09051069093756942 0.167612384526192 233.60842545221197 274.64500435218974)" id="L1_34"><path d="m30.391 318.583c-7.86.457-15.59-2.156-21.56-7.288-11.774-11.844-11.774-30.973 0-42.817l257.812-257.813c12.246-11.459 31.462-10.822 42.921 1.424 10.362 11.074 10.966 28.095 1.414 39.875l-259.331 259.331c-5.893 5.058-13.499 7.666-21.256 7.288z" fill="#ffffff"/><path d="m287.9 318.583c-7.966-.034-15.601-3.196-21.257-8.806l-257.813-257.814c-10.908-12.738-9.425-31.908 3.313-42.817 11.369-9.736 28.136-9.736 39.504 0l259.331 257.813c12.243 11.462 12.876 30.679 1.414 42.922-.456.487-.927.958-1.414 1.414-6.35 5.522-14.707 8.161-23.078 7.288z" fill="#ffffff"/></g><g transform="matrix(0.0883883461356163 0 0 0.0883883461356163 6.786796927452087 246.7867969274521)" id="L1_35"><path d="m240 20a220.07 220.07 0 0 1 85.63 422.72 220.06 220.06 0 0 1 -171.26-405.44 218.55 218.55 0 0 1 85.63-17.28m0-20c-132.55 0-240 107.45-240 240 0 132.55 107.45 240 240 240 132.55 0 240-107.45 240-240 0-132.55-107.45-240-240-240z" id="border" fill="#ffffff"/><path d="m339 240c0 59.4-44.1 105-102 105h-84v-210h84c57.9 0 102 45.6 102 105zm-46.2 0c0-36-22.8-58.8-55.8-58.8h-36v117.6h36c33 0 55.8-22.8 55.8-58.8z" fill="#ffffff"/></g><g transform="matrix(0.11999999731779099 0 0 0.11999999731779099 327 32)" id="L1_36"><path d="m250 0c-138.071 0-250 111.929-250 250s111.929 250 250 250 250-111.929 250-250-111.929-250-250-250zm112.837 384.388h-51.616l-6.577-15.037c-16.477 13.867-37.493 21.889-61.082 21.889-62.137 0-106.4-45.169-106.4-108.1s44.262-107.889 106.4-107.889c17.761-.133 35.199 4.74 50.319 14.059v-80.55h68.956z" fill="#ffffff"/><path d="m252.893 236.8c-26.127 0-45.331 19.9-45.331 46.343s19.2 46.339 45.331 46.339 45.33-19.9 45.33-46.339-19.204-46.343-45.33-46.343z" fill="#ffffff"/></g><g transform="matrix(1.0801275696551373 0.6279811225696925 -0.6279811225696925 1.0801275696551373 60.531313693265766 284.34052184880545)" id="L1_43"><path d="m32 3.85c-15.54 0-28.15 12.61-28.15 28.15s12.61 28.15 28.15 28.15 28.15-12.61 28.15-28.15-12.61-28.15-28.15-28.15zm-.23 44.59c-8.48 0-14.4-6.65-14.4-16.17 0-9.84 6.11-16.71 14.86-16.71 8.48 0 14.4 6.63 14.4 16.12 0 11.58-7.46 16.76-14.86 16.76z" fill="#ffffff"/><path d="m32.04 20.23c-6.65 0-9.02 6.44-9.02 11.95 0 5.58 2.81 11.59 8.98 11.59 6.23 0 9.02-5.98 9.02-11.9 0-5.61-2.81-11.64-8.98-11.64z" fill="#ffffff"/></g></defs><g fi:class="KUsePattern"><pattern id="pattern_L1_2" width="350" height="350" patternUnits="userSpaceOnUse"><use xlink:href="#L1_2" x="-350" y="-350"/><use xlink:href="#L1_2" x="0" y="-350"/><use xlink:href="#L1_2" x="350" y="-350"/><use xlink:href="#L1_2" x="-350" y="0"/><use xlink:href="#L1_2" x="0" y="0"/><use xlink:href="#L1_2" x="350" y="0"/><use xlink:href="#L1_2" x="-350" y="350"/><use xlink:href="#L1_2" x="0" y="350"/><use xlink:href="#L1_2" x="350" y="350"/></pattern><rect x="0" y="0" width="100%" height="100%" fill="url(#pattern_L1_2)"/></g><g fi:class="KUsePattern"><pattern id="pattern_L1_4" width="350" height="350" patternUnits="userSpaceOnUse"><use xlink:href="#L1_4" x="-350" y="-350"/><use xlink:href="#L1_4" x="0" y="-350"/><use xlink:href="#L1_4" x="350" y="-350"/><use xlink:href="#L1_4" x="-350" y="0"/><use xlink:href="#L1_4" x="0" y="0"/><use xlink:href="#L1_4" x="350" y="0"/><use xlink:href="#L1_4" x="-350" y="350"/><use xlink:href="#L1_4" x="0" y="350"/><use xlink:href="#L1_4" x="350" y="350"/></pattern><rect x="0" y="0" width="100%" height="100%" fill="url(#pattern_L1_4)"/></g><g fi:class="KUsePattern"><pattern id="pattern_L1_6" width="350" height="350" patternUnits="userSpaceOnUse"><use xlink:href="#L1_6" x="-350" y="-350"/><use xlink:href="#L1_6" x="0" y="-350"/><use xlink:href="#L1_6" x="350" y="-350"/><use xlink:href="#L1_6" x="-350" y="0"/><use xlink:href="#L1_6" x="0" y="0"/><use xlink:href="#L1_6" x="350" y="0"/><use xlink:href="#L1_6" x="-350" y="350"/><use xlink:href="#L1_6" x="0" y="350"/><use xlink:href="#L1_6" x="350" y="350"/></pattern><rect x="0" y="0" width="100%" height="100%" fill="url(#pattern_L1_6)"/></g><g fi:class="KUsePattern"><pattern id="pattern_L1_7" width="350" height="350" patternUnits="userSpaceOnUse"><use xlink:href="#L1_7" x="-350" y="-350"/><use xlink:href="#L1_7" x="0" y="-350"/><use xlink:href="#L1_7" x="350" y="-350"/><use xlink:href="#L1_7" x="-350" y="0"/><use xlink:href="#L1_7" x="0" y="0"/><use xlink:href="#L1_7" x="350" y="0"/><use xlink:href="#L1_7" x="-350" y="350"/><use xlink:href="#L1_7" x="0" y="350"/><use xlink:href="#L1_7" x="350" y="350"/></pattern><rect x="0" y="0" width="100%" height="100%" fill="url(#pattern_L1_7)"/></g><g fi:class="KUsePattern"><pattern id="pattern_L1_19" width="350" height="350" patternUnits="userSpaceOnUse"><use xlink:href="#L1_19" x="-350" y="-350"/><use xlink:href="#L1_19" x="0" y="-350"/><use xlink:href="#L1_19" x="350" y="-350"/><use xlink:href="#L1_19" x="-350" y="0"/><use xlink:href="#L1_19" x="0" y="0"/><use xlink:href="#L1_19" x="350" y="0"/><use xlink:href="#L1_19" x="-350" y="350"/><use xlink:href="#L1_19" x="0" y="350"/><use xlink:href="#L1_19" x="350" y="350"/></pattern><rect x="0" y="0" width="100%" height="100%" fill="url(#pattern_L1_19)"/></g><g fi:class="KUsePattern"><pattern id="pattern_L1_21" width="350" height="350" patternUnits="userSpaceOnUse"><use xlink:href="#L1_21" x="-350" y="-350"/><use xlink:href="#L1_21" x="0" y="-350"/><use xlink:href="#L1_21" x="350" y="-350"/><use xlink:href="#L1_21" x="-350" y="0"/><use xlink:href="#L1_21" x="0" y="0"/><use xlink:href="#L1_21" x="350" y="0"/><use xlink:href="#L1_21" x="-350" y="350"/><use xlink:href="#L1_21" x="0" y="350"/><use xlink:href="#L1_21" x="350" y="350"/></pattern><rect x="0" y="0" width="100%" height="100%" fill="url(#pattern_L1_21)"/></g><g fi:class="KUsePattern"><pattern id="pattern_L1_42" width="350" height="350" patternUnits="userSpaceOnUse"><use xlink:href="#L1_42" x="-350" y="-350"/><use xlink:href="#L1_42" x="0" y="-350"/><use xlink:href="#L1_42" x="350" y="-350"/><use xlink:href="#L1_42" x="-350" y="0"/><use xlink:href="#L1_42" x="0" y="0"/><use xlink:href="#L1_42" x="350" y="0"/><use xlink:href="#L1_42" x="-350" y="350"/><use xlink:href="#L1_42" x="0" y="350"/><use xlink:href="#L1_42" x="350" y="350"/></pattern><rect x="0" y="0" width="100%" height="100%" fill="url(#pattern_L1_42)"/></g><g fi:class="KUsePattern"><pattern id="pattern_L1_23" width="350" height="350" patternUnits="userSpaceOnUse"><use xlink:href="#L1_23" x="-350" y="-350"/><use xlink:href="#L1_23" x="0" y="-350"/><use xlink:href="#L1_23" x="350" y="-350"/><use xlink:href="#L1_23" x="-350" y="0"/><use xlink:href="#L1_23" x="0" y="0"/><use xlink:href="#L1_23" x="350" y="0"/><use xlink:href="#L1_23" x="-350" y="350"/><use xlink:href="#L1_23" x="0" y="350"/><use xlink:href="#L1_23" x="350" y="350"/></pattern><rect x="0" y="0" width="100%" height="100%" fill="url(#pattern_L1_23)"/></g><g fi:class="KUsePattern"><pattern id="pattern_L1_24" width="350" height="350" patternUnits="userSpaceOnUse"><use xlink:href="#L1_24" x="-350" y="-350"/><use xlink:href="#L1_24" x="0" y="-350"/><use xlink:href="#L1_24" x="350" y="-350"/><use xlink:href="#L1_24" x="-350" y="0"/><use xlink:href="#L1_24" x="0" y="0"/><use xlink:href="#L1_24" x="350" y="0"/><use xlink:href="#L1_24" x="-350" y="350"/><use xlink:href="#L1_24" x="0" y="350"/><use xlink:href="#L1_24" x="350" y="350"/></pattern><rect x="0" y="0" width="100%" height="100%" fill="url(#pattern_L1_24)"/></g><g fi:class="KUsePattern" transform="matrix(1 0 0 1 20 20)"><pattern id="pattern_UNKNOWN" width="350" height="350" patternUnits="userSpaceOnUse"><use xlink:href="#UNKNOWN" x="-350" y="-350"/><use xlink:href="#UNKNOWN" x="0" y="-350"/><use xlink:href="#UNKNOWN" x="350" y="-350"/><use xlink:href="#UNKNOWN" x="-350" y="0"/><use xlink:href="#UNKNOWN" x="0" y="0"/><use xlink:href="#UNKNOWN" x="350" y="0"/><use xlink:href="#UNKNOWN" x="-350" y="350"/><use xlink:href="#UNKNOWN" x="0" y="350"/><use xlink:href="#UNKNOWN" x="350" y="350"/></pattern><rect x="0" y="0" width="100%" height="100%" fill="url(#pattern_UNKNOWN)"/></g><g fi:class="KUsePattern"><pattern id="pattern_L1_25" width="350" height="350" patternUnits="userSpaceOnUse"><use xlink:href="#L1_25" x="-350" y="-350"/><use xlink:href="#L1_25" x="0" y="-350"/><use xlink:href="#L1_25" x="350" y="-350"/><use xlink:href="#L1_25" x="-350" y="0"/><use xlink:href="#L1_25" x="0" y="0"/><use xlink:href="#L1_25" x="350" y="0"/><use xlink:href="#L1_25" x="-350" y="350"/><use xlink:href="#L1_25" x="0" y="350"/><use xlink:href="#L1_25" x="350" y="350"/></pattern><rect x="0" y="0" width="100%" height="100%" fill="url(#pattern_L1_25)"/></g><g fi:class="KUsePattern"><pattern id="pattern_L1_26" width="350" height="350" patternUnits="userSpaceOnUse"><use xlink:href="#L1_26" x="-350" y="-350"/><use xlink:href="#L1_26" x="0" y="-350"/><use xlink:href="#L1_26" x="350" y="-350"/><use xlink:href="#L1_26" x="-350" y="0"/><use xlink:href="#L1_26" x="0" y="0"/><use xlink:href="#L1_26" x="350" y="0"/><use xlink:href="#L1_26" x="-350" y="350"/><use xlink:href="#L1_26" x="0" y="350"/><use xlink:href="#L1_26" x="350" y="350"/></pattern><rect x="0" y="0" width="100%" height="100%" fill="url(#pattern_L1_26)"/></g><g fi:class="KUsePattern"><pattern id="pattern_L1_27" width="350" height="350" patternUnits="userSpaceOnUse"><use xlink:href="#L1_27" x="-350" y="-350"/><use xlink:href="#L1_27" x="0" y="-350"/><use xlink:href="#L1_27" x="350" y="-350"/><use xlink:href="#L1_27" x="-350" y="0"/><use xlink:href="#L1_27" x="0" y="0"/><use xlink:href="#L1_27" x="350" y="0"/><use xlink:href="#L1_27" x="-350" y="350"/><use xlink:href="#L1_27" x="0" y="350"/><use xlink:href="#L1_27" x="350" y="350"/></pattern><rect x="0" y="0" width="100%" height="100%" fill="url(#pattern_L1_27)"/></g><g fi:class="KUsePattern"><pattern id="pattern_L1_28" width="350" height="350" patternUnits="userSpaceOnUse"><use xlink:href="#L1_28" x="-350" y="-350"/><use xlink:href="#L1_28" x="0" y="-350"/><use xlink:href="#L1_28" x="350" y="-350"/><use xlink:href="#L1_28" x="-350" y="0"/><use xlink:href="#L1_28" x="0" y="0"/><use xlink:href="#L1_28" x="350" y="0"/><use xlink:href="#L1_28" x="-350" y="350"/><use xlink:href="#L1_28" x="0" y="350"/><use xlink:href="#L1_28" x="350" y="350"/></pattern><rect x="0" y="0" width="100%" height="100%" fill="url(#pattern_L1_28)"/></g><g fi:class="KUsePattern"><pattern id="pattern_L1_30" width="350" height="350" patternUnits="userSpaceOnUse"><use xlink:href="#L1_30" x="-350" y="-350"/><use xlink:href="#L1_30" x="0" y="-350"/><use xlink:href="#L1_30" x="350" y="-350"/><use xlink:href="#L1_30" x="-350" y="0"/><use xlink:href="#L1_30" x="0" y="0"/><use xlink:href="#L1_30" x="350" y="0"/><use xlink:href="#L1_30" x="-350" y="350"/><use xlink:href="#L1_30" x="0" y="350"/><use xlink:href="#L1_30" x="350" y="350"/></pattern><rect x="0" y="0" width="100%" height="100%" fill="url(#pattern_L1_30)"/></g><g fi:class="KUsePattern"><pattern id="pattern_L1_34" width="350" height="350" patternUnits="userSpaceOnUse"><use xlink:href="#L1_34" x="-350" y="-350"/><use xlink:href="#L1_34" x="0" y="-350"/><use xlink:href="#L1_34" x="350" y="-350"/><use xlink:href="#L1_34" x="-350" y="0"/><use xlink:href="#L1_34" x="0" y="0"/><use xlink:href="#L1_34" x="350" y="0"/><use xlink:href="#L1_34" x="-350" y="350"/><use xlink:href="#L1_34" x="0" y="350"/><use xlink:href="#L1_34" x="350" y="350"/></pattern><rect x="0" y="0" width="100%" height="100%" fill="url(#pattern_L1_34)"/></g><g fi:class="KUsePattern"><pattern id="pattern_L1_35" width="350" height="350" patternUnits="userSpaceOnUse"><use xlink:href="#L1_35" x="-350" y="-350"/><use xlink:href="#L1_35" x="0" y="-350"/><use xlink:href="#L1_35" x="350" y="-350"/><use xlink:href="#L1_35" x="-350" y="0"/><use xlink:href="#L1_35" x="0" y="0"/><use xlink:href="#L1_35" x="350" y="0"/><use xlink:href="#L1_35" x="-350" y="350"/><use xlink:href="#L1_35" x="0" y="350"/><use xlink:href="#L1_35" x="350" y="350"/></pattern><rect x="0" y="0" width="100%" height="100%" fill="url(#pattern_L1_35)"/></g><g fi:class="KUsePattern"><pattern id="pattern_L1_36" width="350" height="350" patternUnits="userSpaceOnUse"><use xlink:href="#L1_36" x="-350" y="-350"/><use xlink:href="#L1_36" x="0" y="-350"/><use xlink:href="#L1_36" x="350" y="-350"/><use xlink:href="#L1_36" x="-350" y="0"/><use xlink:href="#L1_36" x="0" y="0"/><use xlink:href="#L1_36" x="350" y="0"/><use xlink:href="#L1_36" x="-350" y="350"/><use xlink:href="#L1_36" x="0" y="350"/><use xlink:href="#L1_36" x="350" y="350"/></pattern><rect x="0" y="0" width="100%" height="100%" fill="url(#pattern_L1_36)"/></g><g fi:class="KUsePattern"><pattern id="pattern_L1_43" width="350" height="350" patternUnits="userSpaceOnUse"><use xlink:href="#L1_43" x="-350" y="-350"/><use xlink:href="#L1_43" x="0" y="-350"/><use xlink:href="#L1_43" x="350" y="-350"/><use xlink:href="#L1_43" x="-350" y="0"/><use xlink:href="#L1_43" x="0" y="0"/><use xlink:href="#L1_43" x="350" y="0"/><use xlink:href="#L1_43" x="-350" y="350"/><use xlink:href="#L1_43" x="0" y="350"/><use xlink:href="#L1_43" x="350" y="350"/></pattern><rect x="0" y="0" width="100%" height="100%" fill="url(#pattern_L1_43)"/></g></svg>